<?xml version="1.0" encoding="UTF-8"?>
<svg id="Capa_1" data-name="Capa 1" xmlns="http://www.w3.org/2000/svg" viewBox="0 0 771.37 689.35">
  <defs>
    <style>
      .cls-1 {
        fill: #fff;
      }
    </style>
  </defs>
  <path class="cls-1" d="m210.08,388.66c31.09,1.89,40.18,11.2,44.9,45.78,4.56,0,9.2,0,13.83,0,79.66-.01,159.32-.02,238.97-.04,3.67,0,7.36.18,10.99-.19,5.09-.53,7.41,1.92,7.56,6.59.2,6.47.05,12.95.05,19.54-3.13,1.12-6.14.62-9.07.62-70.99.03-141.99-.12-212.98.18-8.05.03-16.29.68-24.23.33-6.73-.3-13.52-.1-20.24-.29-19.47-.57-38.97-.19-58.46-.27-2.55-.01-5.51,1.39-7.58-.92-3.38-3.76-8.14-6.58-9.37-11.91-.91-3.95-1.57-7.94-1.57-12.09.09-84.49.08-168.99.13-253.48,0-3.46-.17-6.92.99-10.35,3.03-8.92,12.32-13.77,21.7-13.42,12.37.47,24.85,1.3,37.24-.58,2.34-.36,4.72.9,7.23.9,59-.07,117.99-.05,176.99-.05,107.32,0,214.64.05,321.96-.1,8.19-.01,14.18,3.28,18.73,9.53,2.56,3.51,2.13,8.29,1.98,12.09-.54,14.03.24,28.03,0,42-.22,13.08-.33,26.18-.4,39.27-.21,37.15-.09,74.3-.02,111.45,0,1.73-1.2,4.06,1.55,5.11.26.1.48.94.35,1.29-4.32,11.92-1.03,24.24-1.86,36.34-.47,6.8-.19,13.66-.03,20.49.05,2.05-1.31,4.69,1.72,6.04.26.12.29,1.29.08,1.85-3.78,10.11-1.65,20.47-1.19,30.73.13,2.81-.78,5.34-.77,8.11.15,58.16.12,116.32.1,174.49,0,15.26-8.82,26.15-23.83,30.58-4.53,1.33-8.79,1.07-13.32,1.06-132.99-.13-265.98-.11-398.97-.11-2.5,0-5-.03-7.5-.05-9.71-.11-14.54-4.98-14.53-14.65.01-8.31,4.83-12.67,14.25-12.68,88.66-.07,177.32-.13,265.98-.17,44.16-.02,88.33.12,132.49-.06,13.96-.06,18.92-6.23,18.87-18.43-.08-20.33-.03-40.66-.03-60.99.03-100.99.07-201.97.09-302.96,0-13.67-.02-27.33-.03-41,0-2.3,0-4.6,0-6.92-12.76-.34-23.47-4.2-32.09-13.1-8.71-8.99-11.3-20.04-10.49-32.25H254.78c2.15,32.18-19.8,44.32-44.7,45.31v157.39Z"/>
  <path class="cls-1" d="m1.43,224.01c.04-3.66.11-7.32.12-10.98.05-12.18,5.09-17.68,17.07-19.09,9.56-1.13,19.07-2.74,28.63-3.87,4.46-.53,6.69-3.33,8.07-6.96,4.85-12.73,9.49-25.54,16.17-37.47,1.41-2.52.49-4.21-1.09-6.24-7.04-9.08-14.04-18.21-20.83-27.48-6.64-9.07-5.67-15.81,2.98-25.36,6.23-6.88,12.85-13.43,19.29-20.1,5.82-6.03,11.56-12.3,18.14-17.6,6.49-5.24,13.01-5.55,19.96-.74,9.48,6.56,18.85,13.29,28.15,20.09,4.45,3.25,8.53,4.98,13.98,1.57,8.92-5.58,18.51-10.1,28.69-12.74,8.32-2.16,9.27-8.68,10.41-15.07,1.72-9.64,2.86-19.39,4.2-29.1.84-6.06,7.68-12.72,13.93-12.76,20.49-.14,40.99-.11,61.48.05,5.7.04,12.89,6.28,13.44,12.21.56,6.01,3.72,11.33,3.58,17.53-.12,5.15.82,10.35,1.63,15.48.89,5.59,3.1,9.55,9.63,11.23,10.81,2.78,21.23,7.15,30.9,12.77,4.54,2.64,8.01,1.64,11.83-.41,7.85-4.22,14.36-10.29,21.34-15.71,5.66-4.38,11.03-9.77,19.06-8.55,2.91.44,6.36,1.39,8.31,3.36,5.4,5.42,11.56,10.38,16.37,15.92,8.33,9.61,17.91,18.05,25.79,28.02,2.26,2.86,1.79,7.03,4.56,9.73.42.41.11,1.48-.45,2.24-4.63,6.24-9.39,12.39-13.7,18.85-3.41,5.11-7.79,9.38-11.4,14.31-2.66,3.64-6.07,5.11-11,5.05-25.82-.33-51.65-.26-77.48,0-3.93.04-5.99-2.41-8.43-4.25-14.58-11.01-30.71-18.39-48.67-21.82-11.82-2.25-23.72-3.81-35.75-2.82-7.59.62-15.04,1.82-22.46,4.22-5.08,1.65-10.47,2.69-15.48,4.75-29.67,12.17-52.1,32.44-66.53,61.04-6.79,13.47-10.61,27.97-12.56,43.1-2.85,22.16,1.06,43.14,9.44,63.41,7.83,18.96,20.47,34.49,36.33,47.38,4.53,3.68,6.69,7.72,6.53,13.91-.48,18.65-.17,37.32-.25,55.98,0,1.44.93,3.29-1.48,4.19-1.93.72-2.86-.47-4.18-1.27-2.26-1.37-4.59-2.67-7-3.76-7.84-3.54-8.99-2.75-15.9,2.68-9.49,7.45-19.54,14.18-29.5,21.01-3.32,2.28-11.04,1.36-13.59-.79-14.86-12.52-27.47-27.32-41.38-40.79-4.08-3.95-7.51-8.23-7.08-14.39.31-4.41,1.73-8.67,4.97-11.51,5.49-4.79,8.53-11.27,12.6-17,2.25-3.17,4.93-6.02,7.02-9.34,1.73-2.75,1.85-5.08.44-7.74-5.71-10.78-10.58-21.96-14.55-33.46-2.57-7.44-8.76-7.1-14.38-7.78-8.13-.98-16.12-2.75-24.37-3.27-8.67-.55-13.33-6.11-15.39-15.64.08-.14.24-.29.22-.42-.05-.3-.19-.59-.29-.89-.08-5.96-.17-11.91-.25-17.87,1.14-1.68,1.13-3.35-.03-5.02.55-4.99.4-9.99.15-14.99,1.06-1.67,1.06-3.33.01-5Z"/>
  <path class="cls-1" d="m646.26,485.83c0-46.99.16-93.98-.16-140.96-.05-7.36,4.59-12.36,11.85-12.05,13.8.59,27.65.11,41.48.22,3.26.03,6.55.38,9.75,1,3.61.7,6.2,5.67,6.2,11.29.02,68.15.02,136.3.03,204.45,0,25.33-.17,50.66.08,75.98.11,11.57-4.43,14.62-14.18,14.43-13.99-.27-27.99-.05-41.99-.07-10.49-.01-13.08-2.62-13.08-13.33-.02-46.99,0-93.98,0-140.96h.02Z"/>
  <path class="cls-1" d="m619.33,548.02c-.06,26.15-.18,52.3-.16,78.45.01,10.1-3.18,13.63-13.17,13.66-14.49.05-28.99.07-43.48.02-9.42-.03-12.37-2.97-12.37-12.34,0-66.48.03-132.95,0-199.43,0-1.94,0-3.82-.57-5.84-1.87-6.54,3.24-12.53,10.49-12.56,15.83-.07,31.65-.06,47.48-.03,7.52.02,11.37,3.86,11.58,11.58.16,5.82.12,11.65.17,17.47-1.13,1.32-1.11,2.65-.06,4-.29,33.67-.41,67.33.12,101-1.13,1.33-1.14,2.66-.04,4.01Z"/>
  <path class="cls-1" d="m459.09,356.84c.02-10.24.05-20.48.07-30.71.18-.78-.11-1.14-.92-1.02-11.89-2.76-23.16-6.84-32.62-14.94-7.8-6.67-12.12-15.27-14.26-25.12-4.54-20.89,7.49-40.92,24.73-50.31,5.9-3.22,12.31-5.54,19.12-5.73,3.23-.09,3.99-1.28,3.91-4.15-.13-4.16.02-8.33.03-12.49.02-3.7,1.84-5.51,5.56-5.47,3.83.05,7.66.09,11.49.03,4.37-.07,6.37,2.17,6.42,6.36.05,4.96.01,9.93.01,15.13,6.08,1.17,12.06,1.18,17.55,3.45,14.97,6.19,25.67,16.27,29.86,32.44,1.15,4.44.02,6.94-4.71,7.86-4.77.93-9.34,2.72-14.03,4.01-4.65,1.28-6.38-.22-8.02-4.21-3.06-7.43-8.82-12.17-16.47-14.55-1.07-.33-2.28-.22-3.42-.32-.83-.09-1.09.28-.85,1.06v44.21c29.48,3.05,48.82,21.34,51.12,39.88,1.9,15.29-.96,29.09-11.7,40.63-10.55,11.34-24,16.23-39.16,16.9-1.37,4.94.49,9.8-1.13,14.45-.45,1.29-.63,2.46-1.85,3.26-3.1,2.04-15.35,2.35-18.24.24-1.86-1.36-2.35-3.53-2.37-5.74-.04-4.12-.01-8.25-.01-12.66-5.29-.09-9.91-.86-14.54-1.97-18.17-4.36-30.4-15.31-37.13-32.58-2.92-7.5-.98-9.66,7.37-10.98,4.68-.74,9.1-3.11,13.85-4.24,3.03-.72,3.8-.31,4.9,2.54,4.42,11.45,12.7,18.26,25.43,19.75,0-3.36,0-6.51,0-9.65,0-1.78,0-3.57,0-5.35Zm.08-99.72c.19-.8-.09-1.17-.94-.99-2.34.8-4.8,1.37-7.01,2.45-6.8,3.34-11.13,8.82-11.73,16.39-.75,9.56,7.81,18.27,19.67,19.91v-37.76Zm23.45,112.68c-.52,1.79.07,2.47,1.91,1.91,11-.69,19.14-7.46,20.63-17.02,1.68-10.79-2.66-20.9-22.54-24.24v39.35Z"/>
  <path class="cls-1" d="m517.26,557.97c0,23.47-.02,46.95,0,70.42,0,8.48-3.15,11.73-11.66,11.74-15.82.02-31.64-.28-47.45.13-8.94.23-11.88-5.19-11.85-12.08.13-29.63.07-59.27.08-88.9,0-10.49,0-20.98.01-31.47,0-2.13.21-4.27-1.09-6.2-.41-.61-1.37-1.36-.64-2.15,3.45-3.76,1.4-8.26,1.65-12.39.46-7.45,3.67-10.91,11.09-10.95,7.49-.04,15.09.75,22.43-.31,4.5-.65,9.39-.96,13.35-.52,6.46.71,13.49-.83,19.47,2.47,3.73,2.06,4.63,5.97,4.6,10.29-.14,23.31-.06,46.61-.06,69.92.02,0,.04,0,.05,0Z"/>
  <path class="cls-1" d="m382.58,523.62c7.66,0,15.33-.1,22.98.06,6.46.13,9.96,3.75,9.97,10.27.05,31.81.06,63.63,0,95.44-.01,7.42-3.53,10.74-11.1,10.76-15.99.03-31.98.02-47.97,0-8.61,0-12.12-3.48-12.12-11.99,0-30.98.01-61.96,0-92.94,0-2.09.53-4.29-1.32-5.75,3.7-5.08,8.46-6.17,14.05-5.91,6.98.32,13.99.08,20.98.08,1.5.42,3.01.43,4.51,0Z"/>
  <path class="cls-1" d="m459.09,356.84c0,1.78,0,3.57,0,5.35-2.31-1.79-3.68-3.57,0-5.35Z"/>
  <path class="cls-1" d="m1.43,224.01c1.05,1.67,1.05,3.34-.01,5-1.86-1.67-1.86-3.34.01-5Z"/>
  <path class="cls-1" d="m1.26,244c1.16,1.67,1.17,3.34.03,5.02-1.73-1.66-1.71-3.34-.03-5.02Z"/>
  <path class="cls-1" d="m382.58,523.62c-1.5.44-3.01.43-4.51,0,1.5-2.14,3-3.48,4.51,0Z"/>
  <path class="cls-1" d="m619.25,443.01c-1.05-1.35-1.07-2.68.06-4,1.59,1.36,1.64,2.69-.06,4Z"/>
  <path class="cls-1" d="m619.33,548.02c-1.11-1.35-1.1-2.68.04-4.01,1.55,1.35,1.58,2.69-.04,4.01Z"/>
  <path class="cls-1" d="m482.54,258.15c-.25-.78.01-1.15.85-1.06-.28.35-.57.71-.85,1.06Z"/>
  <path class="cls-1" d="m1.54,266.89c.1.3.24.58.29.89.02.12-.14.28-.22.42-.11-.29-.25-.58-.3-.89-.02-.12.15-.28.24-.42Z"/>
  <path class="cls-1" d="m458.25,325.11c.81-.12,1.1.24.92,1.02-.31-.34-.61-.68-.92-1.02Z"/>
  <path class="cls-1" d="m482.63,369.8c.98.29,1.64.91,1.91,1.91-1.84.57-2.43-.12-1.91-1.91Z"/>
  <path class="cls-1" d="m459.18,257.12c-.31-.33-.62-.66-.94-.99.85-.17,1.12.19.94.99Z"/>
</svg>